<svg width="1696" height="800" viewBox="0 0 1696 800" fill="none" xmlns="http://www.w3.org/2000/svg">
<rect width="1696" height="800" fill="white"/>
<path d="M201.6 270.56V241.76H221.184V270.56H201.6ZM201.6 452V301.952H221.184V452H201.6ZM390.463 452H370.879V368.192C370.879 350.528 368.191 337.664 362.815 329.6C357.631 321.344 349.567 317.216 338.623 317.216C330.943 317.216 323.359 319.136 315.871 322.976C308.383 326.624 301.759 331.712 295.999 338.24C290.431 344.576 286.399 351.872 283.903 360.128V452H264.319V301.952H282.175V335.936C288.127 324.992 296.863 316.16 308.383 309.44C319.903 302.72 332.383 299.36 345.823 299.36C356.959 299.36 365.791 302.048 372.319 307.424C378.847 312.608 383.455 320.096 386.143 329.888C389.023 339.488 390.463 350.912 390.463 364.16V452ZM558.369 452H538.785V368.192C538.785 350.528 536.097 337.664 530.721 329.6C525.537 321.344 517.473 317.216 506.529 317.216C498.849 317.216 491.265 319.136 483.777 322.976C476.289 326.624 469.665 331.712 463.905 338.24C458.337 344.576 454.305 351.872 451.809 360.128V452H432.225V301.952H450.081V335.936C456.033 324.992 464.769 316.16 476.289 309.44C487.809 302.72 500.289 299.36 513.729 299.36C524.865 299.36 533.697 302.048 540.225 307.424C546.753 312.608 551.361 320.096 554.049 329.888C556.929 339.488 558.369 350.912 558.369 364.16V452ZM641.678 452L580.91 301.952H601.358L652.622 432.416L704.174 301.952H723.469L662.702 452H641.678ZM986.969 454.88C972.377 454.88 959.417 451.328 948.089 444.224C936.761 436.928 927.833 427.424 921.305 415.712C914.777 403.808 911.513 390.752 911.513 376.544C911.513 362.336 914.681 349.472 921.017 337.952C927.353 326.24 936.185 316.928 947.513 310.016C958.841 302.912 971.897 299.36 986.681 299.36C1000.7 299.36 1012.99 302.624 1023.55 309.152C1034.3 315.488 1042.36 324.128 1047.74 335.072L1028.73 341.12C1024.51 333.44 1018.55 327.488 1010.87 323.264C1003.39 318.848 995.033 316.64 985.817 316.64C975.641 316.64 966.425 319.232 958.169 324.416C950.105 329.6 943.577 336.8 938.585 346.016C933.785 355.04 931.385 365.216 931.385 376.544C931.385 387.872 933.881 398.144 938.873 407.36C943.865 416.576 950.489 423.968 958.745 429.536C967.001 434.912 976.121 437.6 986.105 437.6C992.633 437.6 998.969 436.448 1005.11 434.144C1011.26 431.84 1016.54 428.768 1020.95 424.928C1025.37 420.896 1028.35 416.576 1029.88 411.968L1049.18 417.728C1046.49 424.832 1042.07 431.264 1035.93 437.024C1029.79 442.592 1022.49 447.008 1014.04 450.272C1005.59 453.344 996.569 454.88 986.969 454.88ZM1142.47 454.88C1128.07 454.88 1115.21 451.328 1103.88 444.224C1092.75 437.12 1084.01 427.712 1077.67 416C1071.34 404.096 1068.17 391.232 1068.17 377.408C1068.17 363.392 1071.34 350.528 1077.67 338.816C1084.2 326.912 1093.03 317.408 1104.17 310.304C1115.5 303.008 1128.27 299.36 1142.47 299.36C1156.87 299.36 1169.64 303.008 1180.78 310.304C1192.11 317.408 1200.94 326.912 1207.27 338.816C1213.8 350.528 1217.07 363.392 1217.07 377.408C1217.07 391.232 1213.9 404.096 1207.56 416C1201.23 427.712 1192.39 437.12 1181.07 444.224C1169.93 451.328 1157.07 454.88 1142.47 454.88ZM1088.04 377.696C1088.04 388.832 1090.44 399.008 1095.24 408.224C1100.23 417.248 1106.86 424.448 1115.11 429.824C1123.37 435.008 1132.49 437.6 1142.47 437.6C1152.46 437.6 1161.58 434.912 1169.83 429.536C1178.09 424.16 1184.71 416.864 1189.71 407.648C1194.7 398.432 1197.19 388.256 1197.19 377.12C1197.19 365.984 1194.7 355.808 1189.71 346.592C1184.71 337.376 1178.09 330.08 1169.83 324.704C1161.58 319.328 1152.46 316.64 1142.47 316.64C1132.68 316.64 1123.66 319.424 1115.4 324.992C1107.15 330.368 1100.52 337.664 1095.53 346.88C1090.54 356.096 1088.04 366.368 1088.04 377.696ZM1324.7 319.232C1311.64 319.616 1300.12 323.264 1290.14 330.176C1280.35 337.088 1273.43 346.592 1269.4 358.688V452H1249.82V301.952H1268.25V337.952C1273.43 327.392 1280.25 318.848 1288.7 312.32C1297.34 305.792 1306.46 302.144 1316.06 301.376C1317.98 301.184 1319.61 301.088 1320.95 301.088C1322.3 301.088 1323.55 301.184 1324.7 301.376V319.232ZM1411.09 454.88C1396.69 454.88 1383.82 451.328 1372.5 444.224C1361.17 437.12 1352.24 427.616 1345.71 415.712C1339.18 403.808 1335.92 390.752 1335.92 376.544C1335.92 362.528 1339.09 349.664 1345.42 337.952C1351.95 326.24 1360.88 316.928 1372.21 310.016C1383.54 302.912 1396.4 299.36 1410.8 299.36C1425.58 299.36 1438.54 302.912 1449.68 310.016C1460.82 317.12 1469.46 326.528 1475.6 338.24C1481.94 349.76 1485.1 362.432 1485.1 376.256C1485.1 379.328 1485.01 381.92 1484.82 384.032H1356.37C1357.33 394.784 1360.4 404.384 1365.58 412.832C1370.77 421.088 1377.39 427.712 1385.46 432.704C1393.52 437.504 1402.35 439.904 1411.95 439.904C1421.74 439.904 1430.96 437.408 1439.6 432.416C1448.24 427.424 1454.38 420.896 1458.03 412.832L1475.02 417.44C1471.95 424.736 1467.15 431.264 1460.62 437.024C1454.29 442.592 1446.9 447.008 1438.45 450.272C1430 453.344 1420.88 454.88 1411.09 454.88ZM1355.79 369.92H1466.67C1465.9 359.168 1462.93 349.664 1457.74 341.408C1452.56 332.96 1445.94 326.432 1437.87 321.824C1429.81 317.024 1420.88 314.624 1411.09 314.624C1401.3 314.624 1392.37 317.024 1384.3 321.824C1376.24 326.432 1369.62 332.96 1364.43 341.408C1359.44 349.664 1356.56 359.168 1355.79 369.92Z" fill="black"/>
<path d="M814.536 454.88C800.136 454.88 787.272 451.328 775.944 444.224C764.808 437.12 756.072 427.712 749.736 416C743.4 404.096 740.232 391.232 740.232 377.408C740.232 363.392 743.4 350.528 749.736 338.816C756.264 326.912 765.096 317.408 776.232 310.304C787.56 303.008 800.328 299.36 814.536 299.36C828.936 299.36 841.704 303.008 852.84 310.304C864.168 317.408 873 326.912 879.336 338.816C885.864 350.528 889.128 363.392 889.128 377.408C889.128 391.232 885.96 404.096 879.624 416C873.288 427.712 864.456 437.12 853.128 444.224C841.992 451.328 829.128 454.88 814.536 454.88ZM760.104 377.696C760.104 388.832 762.504 399.008 767.304 408.224C772.296 417.248 778.92 424.448 787.176 429.824C795.432 435.008 804.552 437.6 814.536 437.6C824.52 437.6 833.64 434.912 841.896 429.536C850.152 424.16 856.776 416.864 861.768 407.648C866.76 398.432 869.256 388.256 869.256 377.12C869.256 365.984 866.76 355.808 861.768 346.592C856.776 337.376 850.152 330.08 841.896 324.704C833.64 319.328 824.52 316.64 814.536 316.64C804.744 316.64 795.72 319.424 787.464 324.992C779.208 330.368 772.584 337.664 767.592 346.88C762.6 356.096 760.104 366.368 760.104 377.696Z" fill="white"/>
<rect x="186" y="238" width="49" height="46" fill="white"/>
<path d="M225 279L211 265L197 279" stroke="#018BD3" stroke-width="8" stroke-linecap="round" stroke-linejoin="round"/>
<path d="M225 235L211 221L197 235" stroke="#018BD3" stroke-width="8" stroke-linecap="round" stroke-linejoin="round"/>
<rect x="1407.83" y="403.216" width="138.852" height="87.7674" transform="rotate(-0.417748 1407.83 403.216)" fill="white"/>
<path d="M1429 456L1443 442L1429 428" stroke="#F49110" stroke-width="8" stroke-linecap="round" stroke-linejoin="round"/>
<path d="M1473 456L1487 442L1473 428" stroke="#F49110" stroke-width="8" stroke-linecap="round" stroke-linejoin="round"/>
<path d="M211.464 510.424H202.44V505.72H225.912V510.424H216.792V541H211.464V510.424ZM316.24 505.72H331.696V510.424H321.568V520.168H329.728V524.968H321.568V536.248H333.28V541H316.24V505.72ZM439.926 541.336C436.278 541.336 433.11 540.52 430.422 538.888C427.766 537.256 425.734 535.08 424.326 532.36C422.918 529.608 422.214 526.584 422.214 523.288C422.214 519.8 422.966 516.68 424.47 513.928C426.006 511.176 428.15 509.032 430.902 507.496C433.654 505.928 436.774 505.144 440.262 505.144C441.83 505.144 443.286 505.32 444.63 505.672C446.006 505.992 447.142 506.376 448.038 506.824C448.934 507.24 449.526 507.592 449.814 507.88L447.462 512.68C445.51 510.952 442.966 510.088 439.83 510.088C437.622 510.088 435.622 510.632 433.83 511.72C432.038 512.808 430.63 514.36 429.606 516.376C428.582 518.392 428.07 520.728 428.07 523.384C428.07 525.816 428.518 528.024 429.414 530.008C430.342 531.992 431.686 533.56 433.446 534.712C435.206 535.864 437.302 536.44 439.734 536.44C442.55 536.44 445.27 535.64 447.894 534.04L449.478 538.6C448.774 539.24 447.478 539.864 445.59 540.472C443.734 541.048 441.846 541.336 439.926 541.336ZM540.218 505.72H545.594V520.12H558.026V505.72H563.402V541H558.026V524.632H545.594V541H540.218V505.72ZM661.26 518.152L661.404 521.992V541H656.028V505.672H656.7L677.436 528.808L677.244 524.776V505.72H682.62V541H681.9L661.26 518.152ZM791.531 541.48C788.331 541.48 785.371 540.744 782.651 539.272C779.963 537.768 777.819 535.64 776.219 532.888C774.619 530.136 773.819 526.936 773.819 523.288C773.819 519.608 774.619 516.408 776.219 513.688C777.819 510.936 779.963 508.824 782.651 507.352C785.371 505.88 788.331 505.144 791.531 505.144C794.731 505.144 797.675 505.88 800.363 507.352C803.083 508.824 805.243 510.936 806.843 513.688C808.443 516.408 809.243 519.608 809.243 523.288C809.243 526.936 808.443 530.136 806.843 532.888C805.243 535.64 803.083 537.768 800.363 539.272C797.675 540.744 794.731 541.48 791.531 541.48ZM791.531 536.632C793.739 536.632 795.755 536.12 797.579 535.096C799.403 534.04 800.843 532.52 801.899 530.536C802.987 528.52 803.531 526.12 803.531 523.336C803.531 520.52 802.987 518.12 801.899 516.136C800.843 514.12 799.403 512.6 797.579 511.576C795.787 510.552 793.771 510.04 791.531 510.04C789.291 510.04 787.259 510.552 785.435 511.576C783.611 512.6 782.171 514.12 781.115 516.136C780.059 518.12 779.531 520.52 779.531 523.336C779.531 526.12 780.075 528.52 781.163 530.536C782.251 532.52 783.707 534.04 785.531 535.096C787.387 536.12 789.387 536.632 791.531 536.632ZM900.444 505.72H905.868V536.2H915.996V541H900.444V505.72ZM1022.59 541.48C1019.39 541.48 1016.43 540.744 1013.71 539.272C1011.02 537.768 1008.87 535.64 1007.27 532.888C1005.67 530.136 1004.87 526.936 1004.87 523.288C1004.87 519.608 1005.67 516.408 1007.27 513.688C1008.87 510.936 1011.02 508.824 1013.71 507.352C1016.43 505.88 1019.39 505.144 1022.59 505.144C1025.79 505.144 1028.73 505.88 1031.42 507.352C1034.14 508.824 1036.3 510.936 1037.9 513.688C1039.5 516.408 1040.3 519.608 1040.3 523.288C1040.3 526.936 1039.5 530.136 1037.9 532.888C1036.3 535.64 1034.14 537.768 1031.42 539.272C1028.73 540.744 1025.79 541.48 1022.59 541.48ZM1022.59 536.632C1024.79 536.632 1026.81 536.12 1028.63 535.096C1030.46 534.04 1031.9 532.52 1032.95 530.536C1034.04 528.52 1034.59 526.12 1034.59 523.336C1034.59 520.52 1034.04 518.12 1032.95 516.136C1031.9 514.12 1030.46 512.6 1028.63 511.576C1026.84 510.552 1024.83 510.04 1022.59 510.04C1020.35 510.04 1018.31 510.552 1016.49 511.576C1014.67 512.6 1013.23 514.12 1012.17 516.136C1011.11 518.12 1010.59 520.52 1010.59 523.336C1010.59 526.12 1011.13 528.52 1012.22 530.536C1013.31 532.52 1014.76 534.04 1016.59 535.096C1018.44 536.12 1020.44 536.632 1022.59 536.632ZM1147.96 541.48C1144.48 541.48 1141.36 540.68 1138.6 539.08C1135.85 537.48 1133.69 535.288 1132.12 532.504C1130.59 529.688 1129.82 526.536 1129.82 523.048C1129.82 519.656 1130.6 516.6 1132.17 513.88C1133.74 511.16 1135.92 509.032 1138.7 507.496C1141.48 505.96 1144.62 505.192 1148.11 505.192C1150 505.192 1151.69 505.368 1153.2 505.72C1154.73 506.04 1155.98 506.424 1156.94 506.872C1157.9 507.288 1158.56 507.656 1158.91 507.976L1156.8 512.488C1154.81 510.888 1151.88 510.088 1148.01 510.088C1145.45 510.088 1143.23 510.648 1141.34 511.768C1139.45 512.888 1138.01 514.408 1137.02 516.328C1136.03 518.248 1135.53 520.392 1135.53 522.76C1135.53 525.448 1136.06 527.848 1137.12 529.96C1138.2 532.072 1139.69 533.72 1141.58 534.904C1143.5 536.056 1145.66 536.632 1148.06 536.632C1149.56 536.632 1151 536.456 1152.38 536.104C1153.76 535.72 1154.92 535.128 1155.88 534.328V527.512H1148.64V522.568H1161.21V536.392C1160.06 537.832 1158.32 539.048 1155.98 540.04C1153.68 541 1151 541.48 1147.96 541.48ZM1253.04 505.72H1258.42V541H1253.04V505.72ZM1351.68 505.72H1367.14V510.424H1357.01V520.168H1365.17V524.968H1357.01V536.248H1368.72V541H1351.68V505.72ZM1467.45 541.48C1465.53 541.48 1463.62 541.144 1461.73 540.472C1459.85 539.8 1458.49 539.048 1457.65 538.216L1460.2 533.656C1460.87 534.264 1461.91 534.904 1463.32 535.576C1464.76 536.216 1466.13 536.536 1467.45 536.536C1469.14 536.536 1470.52 536.136 1471.57 535.336C1472.66 534.536 1473.21 533.432 1473.21 532.024C1473.21 530.936 1472.92 529.992 1472.34 529.192C1471.77 528.392 1471.06 527.736 1470.23 527.224C1469.4 526.68 1468.21 526.024 1466.68 525.256C1464.85 524.36 1463.61 523.688 1462.93 523.24C1459.83 521.16 1458.28 518.28 1458.28 514.6C1458.28 511.56 1459.29 509.24 1461.3 507.64C1463.32 506.008 1465.86 505.192 1468.93 505.192C1472.23 505.192 1475.03 506.136 1477.33 508.024L1474.79 512.392C1474.18 511.752 1473.32 511.208 1472.2 510.76C1471.11 510.28 1469.94 510.04 1468.69 510.04C1467.09 510.04 1465.83 510.408 1464.9 511.144C1464.01 511.848 1463.56 512.904 1463.56 514.312C1463.56 515.304 1463.85 516.2 1464.42 517C1465 517.768 1465.72 518.44 1466.58 519.016C1467.48 519.592 1468.68 520.296 1470.18 521.128C1471.62 521.928 1472.73 522.568 1473.49 523.048C1474.26 523.496 1474.98 524.04 1475.65 524.68C1476.58 525.512 1477.33 526.504 1477.91 527.656C1478.49 528.808 1478.77 530.072 1478.77 531.448C1478.77 533.592 1478.28 535.416 1477.29 536.92C1476.33 538.424 1474.98 539.56 1473.25 540.328C1471.56 541.096 1469.62 541.48 1467.45 541.48Z" fill="black"/>
<path d="M819.477 299.475C869.019 304.772 884.466 352.506 885.998 375.711C875.654 326.032 838.929 334.372 821.859 344.751C788.65 358.638 779.667 353.639 779.327 349.404C778.51 338.523 791.236 331.15 797.701 328.824C783.819 322.954 761.748 342.483 752.447 352.982C758.485 346.931 766.791 338.606 752.447 352.983L752.344 353.086C738.023 367.41 738.728 360.546 740.878 355.31C746.435 334.491 769.936 294.178 819.477 299.475Z" fill="#018BD3"/>
<path d="M804.519 455.525C754.977 450.228 739.53 402.494 737.998 379.289C748.342 428.968 785.067 420.628 802.137 410.249C835.346 396.362 844.329 401.361 844.669 405.596C845.486 416.477 832.76 423.85 826.295 426.176C840.177 432.046 862.248 412.517 871.549 402.018C865.511 408.069 857.205 416.394 871.55 402.017L871.652 401.914C885.973 387.59 885.268 394.454 883.118 399.69C877.561 420.509 854.06 460.822 804.519 455.525Z" fill="#F49110"/>
</svg>
